<svg xmlns="http://www.w3.org/2000/svg" version="1.1" xmlns:xlink="http://www.w3.org/1999/xlink" width="512" height="512" x="0" y="0" viewBox="0 0 512 512" style="enable-background:new 0 0 512 512" xml:space="preserve" class=""><g><path fill="#ff592a" d="M392.48 0c-37.601.055-71.105 17.508-92.94 44.73-3.532 4.399-10.24 4.399-13.767 0C263.938 17.508 230.43.055 192.828 0 127.203-.09 73.43 53.469 73.308 119.094 73.083 242.855 239.825 364.223 282.7 393.387a17.702 17.702 0 0 0 19.91 0C345.49 364.223 512.227 242.855 512 119.097 511.879 53.474 458.105-.09 392.48 0zm0 0" opacity="1" data-original="#ff592a"></path><path fill="#f63511" d="M201.441.332c3.02 3.41 8.036 3.883 11.606 1.41A119.17 119.17 0 0 0 201.44.332zM401.258.313c16.285 20.363 26.074 46.117 26.125 74.066.226 121.129-159.473 239.95-206.469 272.289 26.309 21.91 49.3 38.227 61.785 46.719a17.702 17.702 0 0 0 19.91 0C345.49 364.223 512.227 242.855 512 119.097 511.883 56.423 462.832 4.758 401.258.313zm0 0" opacity="1" data-original="#f63511"></path><path fill="#ffc5b2" d="M217.715 203.95a7.72 7.72 0 0 1-7.383-5.473l-23.453-77.04h-70.242c-4.266 0-7.723-3.457-7.723-7.718s3.457-7.719 7.723-7.719h75.965a7.716 7.716 0 0 1 7.382 5.469l17.735 58.25 25.894-85.07a7.716 7.716 0 0 1 7.383-5.47 7.718 7.718 0 0 1 7.387 5.47l11.207 36.82h67.89a7.721 7.721 0 1 1 0 15.441h-73.609a7.721 7.721 0 0 1-7.387-5.472l-5.488-18.032-25.894 85.07a7.721 7.721 0 0 1-7.387 5.473zm0 0" opacity="1" data-original="#ffc5b2" class=""></path><path fill="#848489" d="M59.535 246.176h217.977v47.777H59.535zm0 0" opacity="1" data-original="#848489" class=""></path><path fill="#545353" d="M233.121 246.176v11.941c0 8.856-7.18 16.035-16.035 16.035H59.536v19.801h217.976v-47.777zm0 0" opacity="1" data-original="#545353" class=""></path><g fill="#848489"><path d="M289.64 343.25h-17.402c-5.523 0-10-4.48-10-10V207.64c0-5.523 4.477-10 10-10h17.403c5.523 0 10 4.477 10 10v125.61c0 5.52-4.477 10-10 10zm0 0" fill="#848489" opacity="1" data-original="#848489" class=""></path><path d="M327.047 324.79H309.64c-5.524 0-10-4.481-10-10v-88.688c0-5.524 4.476-10 10-10h17.406c5.523 0 10 4.476 10 10v88.687c0 5.52-4.477 10-10 10zM47.402 197.64H64.81c5.523 0 10 4.477 10 10v125.61c0 5.52-4.477 10-10 10H47.402c-5.52 0-10-4.48-10-10V207.64c0-5.523 4.48-10 10-10zM10 216.102h17.402c5.524 0 10 4.476 10 10v88.687c0 5.52-4.476 10-10 10H10c-5.523 0-10-4.48-10-10v-88.687c0-5.524 4.477-10 10-10zm0 0" fill="#848489" opacity="1" data-original="#848489" class=""></path></g><path fill="#545353" d="M289.035 197.64h-15.914c5.86 0 10.606 4.75 10.606 10.606v124.399c0 5.855-4.747 10.605-10.606 10.605h15.914c5.86 0 10.606-4.75 10.606-10.605V208.246c0-5.855-4.746-10.605-10.606-10.605zM326.441 216.102h-15.914c5.856 0 10.606 4.75 10.606 10.605v87.477c0 5.855-4.75 10.605-10.606 10.605h15.914c5.856 0 10.606-4.75 10.606-10.605v-87.477c0-5.855-4.75-10.605-10.606-10.605zM64.203 197.64H48.29c5.856 0 10.606 4.75 10.606 10.606v124.399c0 5.855-4.75 10.605-10.606 10.605h15.914c5.856 0 10.606-4.75 10.606-10.605V208.246c0-5.855-4.75-10.605-10.606-10.605zM26.797 216.102H10.883c5.86 0 10.605 4.75 10.605 10.605v87.477c0 5.855-4.746 10.605-10.605 10.605h15.914c5.86 0 10.605-4.75 10.605-10.605v-87.477c0-5.855-4.746-10.605-10.605-10.605zm0 0" opacity="1" data-original="#545353" class=""></path></g></svg>